<?xml version="1.0" encoding="UTF-8" standalone="no"?>
<!-- Created with Inkscape (http://www.inkscape.org/) -->

<svg
   width="40.216999mm"
   height="40.216999mm"
   viewBox="0 0 40.216999 40.216999"
   version="1.1"
   id="svg1"
   xml:space="preserve"
   inkscape:version="1.2.2 (b0a8486541, 2022-12-01)"
   sodipodi:docname="sliderthumbsel.svg"
   xmlns:inkscape="http://www.inkscape.org/namespaces/inkscape"
   xmlns:sodipodi="http://sodipodi.sourceforge.net/DTD/sodipodi-0.dtd"
   xmlns="http://www.w3.org/2000/svg"
   xmlns:svg="http://www.w3.org/2000/svg"><sodipodi:namedview
     id="namedview1"
     pagecolor="#505050"
     bordercolor="#eeeeee"
     borderopacity="1"
     inkscape:showpageshadow="0"
     inkscape:pageopacity="0"
     inkscape:pagecheckerboard="0"
     inkscape:deskcolor="#505050"
     inkscape:document-units="mm"
     inkscape:zoom="1.6561074"
     inkscape:cx="35.021882"
     inkscape:cy="48.004132"
     inkscape:window-width="1517"
     inkscape:window-height="767"
     inkscape:window-x="0"
     inkscape:window-y="0"
     inkscape:window-maximized="1"
     inkscape:current-layer="layer1"
     showgrid="false" /><defs
     id="defs1" /><g
     inkscape:label="Layer 1"
     inkscape:groupmode="layer"
     id="layer1"
     transform="translate(-84.891502,-128.39149)"><g
       id="g8"
       inkscape:export-filename="sliderthumbsel.png"
       inkscape:export-xdpi="23.999798"
       inkscape:export-ydpi="23.999798"
       style="display:inline"
       inkscape:label="g5"><rect
         style="opacity:0;fill:#ffffa6;fill-opacity:1;stroke:none;stroke-width:1.3008;stroke-dasharray:none;stroke-opacity:1;paint-order:markers stroke fill"
         id="rect9"
         width="40.216999"
         height="40.216999"
         x="84.891502"
         y="128.39149" /><circle
         style="display:inline;fill:#ffff32;fill-opacity:1;stroke:#000000;stroke-width:1.736;stroke-dasharray:none;stroke-opacity:1;paint-order:markers stroke fill"
         id="circle1"
         cx="105"
         cy="148.5"
         r="13.050264" /><path
         id="circle6"
         style="display:inline;fill:#ffff9e;fill-opacity:1;stroke:none;stroke-width:1.736;stroke-dasharray:none;stroke-opacity:1;paint-order:markers stroke fill"
         d="m 104.99979,135.44961 a 13.050264,13.050264 0 0 0 -13.049847,13.05037 13.050264,13.050264 0 0 0 1.751314,6.52983 13.050264,13.050264 0 0 1 -1.673283,-6.37325 13.050264,13.050264 0 0 1 13.050366,-13.05037 13.050264,13.050264 0 0 1 11.29854,6.52054 13.050264,13.050264 0 0 0 -11.37709,-6.67712 z" /><path
         id="circle3"
         style="display:inline;fill:#ffdb00;fill-opacity:1;stroke:none;stroke-width:1.736;stroke-dasharray:none;stroke-opacity:1;paint-order:markers stroke fill"
         d="m 118.02225,148.07417 a 19.528872,12.910234 0 0 1 -13.02246,3.32537 19.528872,12.910234 0 0 1 -13.021942,-3.32486 13.050264,13.050264 0 0 0 -0.0279,0.4253 13.050264,13.050264 0 0 0 13.049852,13.05037 13.050264,13.050264 0 0 0 13.05037,-13.05037 13.050264,13.050264 0 0 0 -0.0279,-0.42581 z" /><path
         id="circle4"
         style="display:inline;fill:#ffdb00;fill-opacity:1;stroke:none;stroke-width:1.2;stroke-dasharray:none;stroke-opacity:1;paint-order:markers stroke fill"
         d="m 94.140507,149.18624 a 10.904338,10.904338 0 0 0 10.859283,10.21798 10.904338,10.904338 0 0 0 10.8598,-10.21798 19.528872,12.910234 0 0 1 -10.8598,2.2133 19.528872,12.910234 0 0 1 -10.859283,-2.2133 z" /><path
         id="circle7"
         style="display:inline;fill:#ffffa6;fill-opacity:1;stroke:none;stroke-width:0.8;stroke-dasharray:none;stroke-opacity:1;paint-order:markers stroke fill"
         d="m 113.77283,142.04393 a 10.904338,10.904338 0 0 1 2.02933,6.30246 10.904338,10.904338 0 0 1 -10.90476,10.90424 10.904338,10.904338 0 0 1 -8.326622,-3.8964 10.904338,10.904338 0 0 0 8.874392,4.60024 10.904338,10.904338 0 0 0 10.90425,-10.90425 10.904338,10.904338 0 0 0 -2.57659,-7.00629 z" /><circle
         style="display:inline;fill:none;fill-opacity:1;stroke:#000000;stroke-width:0.715263;stroke-dasharray:none;stroke-opacity:1;paint-order:markers stroke fill"
         id="path1"
         cx="105"
         cy="148.5"
         r="11.084676" /></g></g></svg>
